Coordinates
version=1
nRows=7
nColumns=63
inDegrees=yes

Units are S.I. units (second, meters, Newtons, ...)
If the header above contains a line with 'inDegrees', this indicates whether rotational values are in degrees (yes) or radians (no).

endheader
time	pelvis_tilt	pelvis_list	pelvis_rotation	pelvis_tx	pelvis_ty	pelvis_tz	hip_flexion_r	hip_adduction_r	hip_rotation_r	knee_angle_r	knee_angle_r_beta	ankle_angle_r	subtalar_angle_r	mtp_angle_r	hip_flexion_l	hip_adduction_l	hip_rotation_l	knee_angle_l	knee_angle_l_beta	ankle_angle_l	subtalar_angle_l	mtp_angle_l	L5_S1_Flex_Ext	L5_S1_Lat_Bending	L5_S1_axial_rotation	L4_L5_Flex_Ext	L4_L5_Lat_Bending	L4_L5_axial_rotation	L3_L4_Flex_Ext	L3_L4_Lat_Bending	L3_L4_axial_rotation	L2_L3_Flex_Ext	L2_L3_Lat_Bending	L2_L3_axial_rotation	L1_L2_Flex_Ext	L1_L2_Lat_Bending	L1_L2_axial_rotation	L1_T12_Flex_Ext	L1_T12_Lat_Bending	L1_T12_axial_rotation	Abs_r3	Abs_r2	Abs_r1	Abs_t1	Abs_t2	neck_flexion	neck_bending	neck_rotation	arm_flex_r	arm_add_r	arm_rot_r	elbow_flex_r	pro_sup_r	wrist_flex_r	wrist_dev_r	arm_flex_l	arm_add_l	arm_rot_l	elbow_flex_l	pro_sup_l	wrist_flex_l	wrist_dev_l
      9.60000000	      4.95869339	      0.27830596	    175.80058464	      2.45798447	      0.89166528	      0.58087616	     13.09094917	     -2.59200807	    -15.23133476	     22.02031636	      0.38432702	     22.29138569	      2.52368326	      0.00000000	      7.10582117	     -0.11620935	     -1.91789053	     11.26712202	      0.19664838	     14.82206116	    -17.82849796	      0.00000000	      0.00365321	     -0.19373077	     -0.56746837	      0.00678437	     -0.25766192	     -0.60293515	      0.00600185	     -0.47103699	     -0.60293515	      0.00417525	     -0.47103699	     -0.49653483	      0.00339237	     -0.39505579	     -0.46106805	      0.00208744	     -0.30008896	     -0.42560128	      0.02609448	     -2.19152122	     -3.15608885	      0.00000000	      0.00000000	      0.00000000	      0.00000000	      0.00000000	     -0.17703964	    -12.82518151	     59.34229947	     21.44420264	     55.81458612	      0.00000000	      5.00000014	    -13.94019169	     -8.41182792	     17.32023324	     22.98500025	     56.07086176	      0.00000000	      5.00000014
      9.63333333	      5.00035750	      0.53998797	    176.04747980	      2.45779609	      0.89152613	      0.58095003	     12.94525679	     -2.29426151	    -15.68106596	     21.85410848	      0.38142615	     22.07650655	      2.08373653	      0.00000000	      7.24230577	     -0.37803350	     -1.70041367	     11.61831340	      0.20277782	     15.15877236	    -17.97925027	      0.00000000	      0.00346723	     -0.17526043	     -0.65431617	      0.00643899	     -0.23309637	     -0.69521093	      0.00569631	     -0.42612821	     -0.69521093	      0.00396270	     -0.42612821	     -0.57252665	      0.00321967	     -0.35739107	     -0.53163189	      0.00198117	     -0.27147840	     -0.49073713	      0.02476606	     -1.98258102	     -3.63911026	      0.00000000	      0.00000000	      0.00000000	      0.00000000	      0.00000000	     -0.11734393	    -12.83997738	     59.17031987	     21.47106264	     55.46240903	      0.00000000	      5.00000014	    -14.27446723	     -8.23472208	     16.24575012	     23.37325667	     55.48446872	      0.00000000	      5.00000014
      9.66666667	      4.96735066	      0.70313903	    176.00891309	      2.45772824	      0.89158960	      0.58082035	     12.82205971	     -2.04286075	    -15.59452555	     21.73049742	      0.37926873	     21.75721809	      1.57360903	      0.00000000	      7.30774987	     -0.57494453	     -2.26521860	     11.99968819	      0.20943407	     15.57930700	    -17.83929005	      0.00000000	      0.00336241	     -0.16912222	     -0.68229296	      0.00624433	     -0.22493256	     -0.72493626	      0.00552410	     -0.41120377	     -0.72493626	      0.00384290	     -0.41120377	     -0.59700634	      0.00312233	     -0.34487404	     -0.55436303	      0.00192128	     -0.26197032	     -0.51171972	      0.02401735	     -1.91314440	     -3.79470873	      0.00000000	      0.00000000	      0.00000000	      0.00000000	      0.00000000	     -0.05160789	    -12.80103518	     59.02353187	     21.40524356	     54.97421904	      0.00000000	      5.00000014	    -14.43302895	     -8.12239963	     15.82302017	     23.50081270	     54.93356587	      0.00000000	      5.00000014
      9.70000000	      4.85325583	      0.70879636	    175.94109500	      2.45761796	      0.89176160	      0.58067858	     12.77653087	     -1.95990279	    -15.17816208	     21.88503788	      0.38196597	     21.50701342	      0.85171865	      0.00000000	      6.99838627	     -0.55014837	     -2.50312751	     11.72218790	      0.20459077	     15.56516987	    -17.89765314	      0.00000000	      0.00259613	     -0.17741893	     -0.68441640	      0.00482127	     -0.23596717	     -0.72719243	      0.00426518	     -0.43137638	     -0.72719243	      0.00296712	     -0.43137638	     -0.59886435	      0.00241077	     -0.36179268	     -0.55608833	      0.00148343	     -0.27482192	     -0.51331230	      0.01854389	     -2.00699840	     -3.80651870	      0.00000000	      0.00000000	      0.00000000	      0.00000000	      0.00000000	      0.09703509	    -12.81657009	     59.83037756	     21.40046972	     54.61008801	      0.00000000	      5.00000014	    -14.56190314	     -8.01104877	     15.09196285	     23.60805293	     54.26806536	      0.00000000	      5.00000014
      9.73333333	      4.73399540	      0.65405201	    175.97413359	      2.45772108	      0.89200291	      0.58074716	     12.66024199	     -2.00868384	    -15.11087166	     21.89191271	      0.38208596	     21.35241456	      0.78531978	      0.00000000	      6.84692119	     -0.46494256	     -2.62975852	     11.67887696	      0.20383486	     15.50056706	    -17.86903963	      0.00000000	      0.00273869	     -0.18352233	     -0.68138605	      0.00508603	     -0.24408469	     -0.72397268	      0.00449940	     -0.44621618	     -0.72397268	      0.00313005	     -0.44621618	     -0.59621280	      0.00254315	     -0.37423873	     -0.55362617	      0.00156489	     -0.28427608	     -0.51103954	      0.01956221	     -2.07604126	     -3.78966480	      0.00000000	      0.00000000	      0.00000000	      0.00000000	      0.00000000	      0.34424355	    -12.81550542	     61.07317683	     21.23627712	     55.93669748	      0.00000000	      5.00000014	    -14.41789934	     -8.06141496	     15.26979431	     23.43879298	     55.61563689	      0.00000000	      5.00000014
      9.76666667	      4.64318366	      0.56560176	    175.98141243	      2.45793159	      0.89220932	      0.58093423	     12.59780237	     -2.09951262	    -14.95462228	     21.90271726	      0.38227453	     21.25643980	      0.77130801	      0.00000000	      6.68540197	     -0.33814151	     -2.56916369	     11.51935569	      0.20105068	     15.31897609	    -17.81927917	      0.00000000	      0.00219084	     -0.18664447	     -0.65551069	      0.00406861	     -0.24823714	     -0.69648011	      0.00359933	     -0.45380735	     -0.69648011	      0.00250391	     -0.45380735	     -0.57357185	      0.00203442	     -0.38060540	     -0.53260244	      0.00125185	     -0.28911228	     -0.49163302	      0.01564896	     -2.11135953	     -3.64575381	      0.00000000	      0.00000000	      0.00000000	      0.00000000	      0.00000000	      0.30983419	    -12.75936855	     61.06799676	     21.10686161	     55.39959060	      0.00000000	      5.00000014	    -14.25341536	     -8.01171772	     15.26878667	     23.21955638	     55.15822154	      0.00000000	      5.00000014
      9.80000000	      4.60219653	      0.41190759	    175.85372857	      2.45815225	      0.89233878	      0.58122021	     12.63145117	     -2.27890457	    -14.62911069	     21.94045165	      0.38293312	     21.30243641	      0.90662169	      0.00000000	      6.46140668	     -0.14184922	     -2.63137136	     11.14482988	      0.19451398	     15.03294351	    -17.70242231	      0.00000000	      0.00199795	     -0.19583254	     -0.62099895	      0.00371039	     -0.26045728	     -0.65981139	      0.00328243	     -0.47614724	     -0.65981139	      0.00228346	     -0.47614724	     -0.54337408	      0.00185529	     -0.39934172	     -0.50456165	      0.00114163	     -0.30334460	     -0.46574921	      0.01427115	     -2.21529686	     -3.45380987	      0.00000000	      0.00000000	      0.00000000	      0.00000000	      0.00000000	      0.31200442	    -12.76205888	     61.22687844	     21.09611063	     54.56413154	      0.00000000	      5.00000014	    -14.16119727	     -7.98960180	     15.51570974	     23.09892300	     54.44950579	      0.00000000	      5.00000014
